<?xml version="1.0" encoding="UTF-8" standalone="no"?>
<!-- Created with Inkscape (http://www.inkscape.org/) -->

<svg
   width="64"
   height="64"
   viewBox="0 0 64.000001 64.000001"
   version="1.1"
   id="svg1"
   inkscape:version="1.4 (e7c3feb100, 2024-10-09)"
   sodipodi:docname="arch_launcher.svg"
   xmlns:inkscape="http://www.inkscape.org/namespaces/inkscape"
   xmlns:sodipodi="http://sodipodi.sourceforge.net/DTD/sodipodi-0.dtd"
   xmlns:xlink="http://www.w3.org/1999/xlink"
   xmlns="http://www.w3.org/2000/svg"
   xmlns:svg="http://www.w3.org/2000/svg">
  <sodipodi:namedview
     id="namedview1"
     pagecolor="#000000"
     bordercolor="#000000"
     borderopacity="0.25"
     inkscape:showpageshadow="2"
     inkscape:pageopacity="0.0"
     inkscape:pagecheckerboard="0"
     inkscape:deskcolor="#d1d1d1"
     inkscape:document-units="mm"
     inkscape:zoom="3.9912249"
     inkscape:cx="-37.832997"
     inkscape:cy="32.070355"
     inkscape:window-width="1920"
     inkscape:window-height="1006"
     inkscape:window-x="0"
     inkscape:window-y="0"
     inkscape:window-maximized="1"
     inkscape:current-layer="layer1" />
  <defs
     id="defs1">
    <linearGradient
       id="linearGradient2"
       inkscape:collect="always">
      <stop
         style="stop-color:#cdcdcd;stop-opacity:1;"
         offset="0.07399648"
         id="stop2" />
      <stop
         style="stop-color:#868686;stop-opacity:0.1144675;"
         offset="1"
         id="stop3" />
    </linearGradient>
    <linearGradient
       inkscape:collect="always"
       xlink:href="#linearGradient2"
       id="linearGradient3"
       x1="126.54271"
       y1="96.920036"
       x2="124.84457"
       y2="145.54837"
       gradientUnits="userSpaceOnUse"
       gradientTransform="matrix(0.98647832,0,0,0.99999999,1.3706244,1.9197022e-6)" />
  </defs>
  <g
     inkscape:label="Layer 1"
     inkscape:groupmode="layer"
     id="layer1"
     transform="matrix(1.3333334,0,0,1.3544489,-135.15286,-132.2055)">
    <ellipse
       style="display:inline;opacity:0.8;fill:url(#linearGradient3);fill-opacity:1;stroke-width:0.335637;stroke-dasharray:none"
       id="ellipse2"
       cx="125.36465"
       cy="121.23418"
       rx="24"
       ry="23.625845"
       inkscape:label="ellipse2" />
    <path
       d="m 125.69362,99.483332 c -1.95709,4.798258 -3.13751,7.936888 -5.31647,12.592508 1.33597,1.41614 2.97582,3.0653 5.63893,4.92787 -2.8631,-1.17815 -4.81609,-2.36098 -6.27559,-3.58841 -2.78865,5.81896 -7.15767,14.1078 -16.02382,30.03847 6.96849,-4.02303 12.37035,-6.50327 17.40462,-7.44967 -0.21617,-0.92976 -0.33908,-1.93548 -0.33073,-2.98483 l 0.008,-0.22324 c 0.11057,-4.46453 2.43302,-7.89776 5.18418,-7.66465 2.75116,0.23311 4.88961,4.04347 4.77903,8.50801 -0.0208,0.84008 -0.11555,1.64823 -0.28112,2.39778 4.97962,0.9741 10.32371,3.448 17.19792,7.4166 -1.35546,-2.49549 -2.56533,-4.745 -3.7207,-6.88743 -1.81991,-1.41055 -3.71816,-3.24639 -7.59024,-5.23379 2.66144,0.69155 4.567,1.48942 6.05235,2.38125 -11.74705,-21.87094 -12.69831,-24.77714 -16.72663,-34.230468 z"
       id="path2518"
       style="opacity:0.84;fill:#ffffff;fill-opacity:1;fill-rule:evenodd;stroke:none;stroke-width:0.264583" />
    <ellipse
       style="display:none;opacity:0.5;fill:#aeaeae;fill-opacity:1;stroke-width:0.309816"
       id="path1"
       cx="125.69762"
       cy="121.46855"
       rx="21.980953"
       ry="21.98522" />
  </g>
</svg>
